<svg width="12" height="12" viewBox="0 0 12 12" fill="none" xmlns="http://www.w3.org/2000/svg">
<path fill-rule="evenodd" clip-rule="evenodd" d="M3.42836 0.428571C3.42836 0.191878 3.62024 0 3.85693 0C4.09363 0 4.2855 0.191878 4.2855 0.428571V1.71429H7.71408V0.428571C7.71408 0.191878 7.90595 0 8.14265 0C8.37934 0 8.57122 0.191878 8.57122 0.428571V1.71429H10.1426C10.6949 1.71429 11.1426 2.162 11.1426 2.71429V3.42857V11.1429C11.1426 11.6162 10.7589 12 10.2855 12H1.71408C1.24069 12 0.856934 11.6162 0.856934 11.1429V3.42857V2.71429C0.856934 2.162 1.30465 1.71429 1.85693 1.71429H3.42836V0.428571ZM2.14265 4.71429V10.7143H9.85693V4.71429H2.14265Z" fill="#C5D2DE"/>
</svg>
