<svg width="20" height="20" viewBox="0 0 11 12" fill="none" xmlns="http://www.w3.org/2000/svg">
<path fill-rule="evenodd" fill="#C5D2DE" clip-rule="evenodd" d="M5.5 4.8748L9.37481 0.999983C9.68559 0.689209 10.1895 0.689209 10.5002 0.999983C10.811 1.31076 10.811 1.81462 10.5002 2.1254L6.62541 6.00021L10.4998 9.87457C10.8105 10.1853 10.8105 10.6892 10.4998 11C10.189 11.3108 9.68513 11.3108 9.37436 11L5.5 7.12562L1.62564 11C1.31487 11.3108 0.811001 11.3108 0.500227 11C0.189452 10.6892 0.189452 10.1853 0.500227 9.87457L4.37459 6.00021L0.499773 2.1254C0.188998 1.81462 0.188998 1.31076 0.499773 0.999983C0.810547 0.689209 1.31441 0.689209 1.62519 0.999983L5.5 4.8748Z" fill="#C5D2DE"/>
</svg>
