<svg width="12" height="12" viewBox="0 0 12 12" fill="none" xmlns="http://www.w3.org/2000/svg">
<path d="M2.29706 3.21767C1.99268 2.91982 1.50801 2.92876 1.2145 3.23763C0.920989 3.54651 0.929795 4.03837 1.23417 4.33622L6 9L10.7658 4.33622C11.0702 4.03837 11.079 3.54651 10.7855 3.23763C10.492 2.92876 10.0073 2.91982 9.70294 3.21767L6 6.84132L2.29706 3.21767Z" fill="#38434E"/>
<mask id="mask0_1818_13350" style="mask-type:alpha" maskUnits="userSpaceOnUse" x="1" y="3" width="10" height="6">
<path d="M2.29706 3.21767C1.99268 2.91982 1.50801 2.92876 1.2145 3.23763C0.920989 3.54651 0.929795 4.03837 1.23417 4.33622L6 9L10.7658 4.33622C11.0702 4.03837 11.079 3.54651 10.7855 3.23763C10.492 2.92876 10.0073 2.91982 9.70294 3.21767L6 6.84132L2.29706 3.21767Z" fill="white"/>
</mask>
<g mask="url(#mask0_1818_13350)">
<rect width="12" height="12" fill="#5E6D7B"/>
</g>
</svg>
