<svg width="12" height="12" viewBox="0 0 12 12" fill="none" xmlns="http://www.w3.org/2000/svg">
<path fill-rule="evenodd" clip-rule="evenodd" d="M5.86356 7.5276C5.80296 7.5216 5.74356 7.5048 5.69016 7.4682L2.78376 5.4516C2.60856 5.331 2.56176 5.0886 2.68056 4.9098L3.13296 4.2264C3.25176 4.0464 3.48996 4.0002 3.66516 4.1202L5.17296 5.1666V0.2706C5.17296 0.1218 5.29116 0 5.43816 0H5.92056H6.40236C6.54996 0 6.66816 0.1218 6.66816 0.2706V5.1666L8.17596 4.1202C8.35116 4.0002 8.58936 4.0464 8.70756 4.2264L9.15996 4.9098C9.27876 5.0886 9.23196 5.331 9.05676 5.4516L6.15096 7.4682C6.09756 7.5048 6.03756 7.5216 5.97756 7.5276C5.95836 7.53 5.93916 7.5312 5.92056 7.5318C5.90196 7.5312 5.88216 7.53 5.86356 7.5276ZM6.7086 9.7419L11.7294 8.7045C11.8782 8.7045 12 8.8233 12 8.9697V11.7345C12 11.8809 11.8812 11.9997 11.7348 11.9997H0.2658C0.1188 11.9997 0 11.8809 0 11.7345V8.9697C0 8.8233 0.1218 8.7045 0.2706 8.7045L5.133 9.7371C5.652 9.8475 6.189 9.8493 6.7086 9.7419Z" fill="#C5D2DE"/>
</svg>
