<svg width="32" height="32" viewBox="0 0 32 32" fill="none" xmlns="http://www.w3.org/2000/svg">
<path fill-rule="evenodd" clip-rule="evenodd" d="M14.8915 0.812608C13.0219 0.946704 11.1826 1.44893 9.49214 2.26047C6.77196 3.57487 4.4465 5.71219 2.93761 8.33783C0.690968 12.1267 0.257152 16.9206 1.72948 21.0669C2.67467 23.764 4.39984 26.1701 6.63072 27.945C9.22226 30.0077 12.5005 31.1956 15.8115 31.2241C18.2284 31.2772 20.6579 30.7263 22.8162 29.6345C25.566 28.2689 27.8764 26.0367 29.3531 23.3408C30.8292 20.6646 31.4761 17.5285 31.1476 14.486C30.7113 9.54786 27.6361 4.97213 23.2967 2.62671C20.7518 1.21996 17.7895 0.576041 14.8915 0.812608ZM14.8956 0.0445548C18.0427 -0.195807 21.2547 0.541724 23.9862 2.12685C26.1717 3.39001 28.0608 5.17312 29.4285 7.30159C31.1265 9.90382 32.0251 13.0178 31.9992 16.1273C31.979 19.3772 30.9474 22.6158 29.0634 25.2617C27.1522 27.9759 24.3727 30.0664 21.2364 31.136C18.4513 32.1031 15.3982 32.2549 12.5235 31.6085C9.5095 30.9349 6.70987 29.344 4.5679 27.1137C2.29794 24.7557 0.761293 21.6853 0.292166 18.4373C-0.169394 15.5447 0.212087 12.5269 1.33887 9.82665C2.38432 7.31613 4.08806 5.09026 6.21993 3.41025C8.69105 1.45573 11.7549 0.263411 14.8956 0.0445548ZM12.5661 7.65083C11.7022 8.11764 11.1082 8.95195 10.6738 9.81282C10.2116 10.6971 10.0212 11.6851 9.93038 12.67C9.50476 12.613 9.16112 12.281 9.06338 11.8654C8.90295 11.3744 9.00909 10.8727 9.11299 10.3816L9.113 10.3815L9.11301 10.3815L9.11301 10.3815C9.13774 10.2646 9.16234 10.1483 9.18318 10.0329C9.21962 9.9007 9.15182 9.78674 9.08646 9.67688L9.08645 9.67686C9.06584 9.64222 9.04548 9.60799 9.0287 9.57373C8.66614 9.55159 8.29601 9.7306 8.13143 10.0639C7.63708 10.9893 7.68122 12.2373 8.36347 13.0583C8.75504 13.5555 9.37235 13.8016 9.9865 13.8667C10.194 14.5068 10.5988 15.1318 11.2495 15.3829C12.0459 15.7049 12.9198 15.3677 13.6115 14.9477C13.6083 14.9816 13.6052 15.0157 13.6022 15.0498C13.5821 15.2744 13.5618 15.5013 13.4835 15.715C13.3163 15.8501 13.1236 15.9467 12.9313 16.0432L12.9313 16.0432L12.9312 16.0432L12.9312 16.0432C12.8444 16.0868 12.7576 16.1303 12.6733 16.1774L12.5969 16.2177C11.2866 16.9105 9.9563 17.6138 8.85593 18.6221C8.03874 19.3919 7.39622 20.4153 7.272 21.5501C7.21273 22.4413 7.56646 23.4198 8.34519 23.9107C9.15922 24.4509 10.2318 24.4205 11.1183 24.0853C12.2363 23.6577 13.0705 22.7063 13.6216 21.6684C14.4369 20.1977 14.5763 18.4836 14.6954 16.839C14.7025 16.7969 14.706 16.7511 14.7097 16.7042C14.7227 16.5366 14.7367 16.356 14.9136 16.2912C16.2453 15.5398 17.5398 14.7219 18.777 13.8212C18.9239 14.0027 19.0683 14.1842 19.2064 14.3708C18.5689 14.7516 17.9339 15.1628 17.4528 15.7396C15.6539 17.7131 15.6242 21.1003 17.5102 23.0264C18.4737 24.046 19.9554 24.4825 21.3263 24.2788C22.5873 24.0985 23.7349 23.3034 24.3712 22.2003C25.2186 20.7967 25.0805 18.8327 23.9777 17.6081C22.9461 16.4652 20.9385 16.4873 19.9302 17.6474C19.137 18.4848 19.1111 19.965 19.9384 20.7847C20.2739 21.1206 20.8584 21.3236 21.2796 21.0346C21.5514 20.8385 21.5255 20.4185 21.3067 20.1914L21.2971 20.1798C21.0155 19.8396 20.6891 19.4453 20.7726 18.9712C20.8571 18.3476 21.5526 17.9655 22.1378 18.0977C22.6384 18.1762 23.0388 18.569 23.2248 19.0294C23.6631 20.0763 23.4146 21.3742 22.6271 22.1889C21.7929 23.0625 20.3407 23.1997 19.3331 22.5526C18.439 22.0004 17.9301 20.9764 17.7731 19.9599C17.6079 18.7353 17.8425 17.4133 18.5998 16.4146C19.0878 15.782 19.7682 15.2633 20.5507 15.0755C20.6629 15.084 20.7759 15.0946 20.8892 15.1052C21.4399 15.1566 21.9997 15.2089 22.5331 15.0337C22.8364 14.9306 23.1315 14.5903 22.977 14.2576C22.8106 13.9161 22.4007 13.8136 22.0596 13.7421C21.621 13.6551 21.1848 13.7434 20.7542 13.8306L20.7541 13.8306L20.7541 13.8306C20.6838 13.8448 20.6137 13.859 20.5437 13.8724C20.1957 13.7529 20.0116 13.386 19.8829 13.0634C20.8508 12.3385 21.8067 11.5504 22.4638 10.5187C22.8465 9.89885 23.0943 9.13791 22.9152 8.40987C22.7734 7.92725 22.3793 7.51737 21.8761 7.42565C21.0375 7.21375 20.1799 7.63818 19.6105 8.24035C18.695 9.23722 18.2296 10.6187 18.2725 11.9672C18.2676 12.0763 18.2811 12.1875 18.2947 12.2985C18.3157 12.4708 18.3366 12.6426 18.2883 12.8053C17.7695 13.2248 17.2043 13.5824 16.6399 13.9394L16.6398 13.9395L16.6397 13.9396L16.6396 13.9397C16.4577 14.0547 16.2759 14.1697 16.0959 14.2867C15.9657 14.3625 15.8375 14.4418 15.7092 14.5211L15.7092 14.5211L15.7092 14.5211L15.7092 14.5211C15.4185 14.7008 15.1278 14.8805 14.8146 15.0192C14.8228 14.5903 14.8449 14.1552 14.9666 13.7408C15.0816 13.5834 15.2072 13.4331 15.3328 13.2827C15.5624 13.0078 15.7923 12.7326 15.959 12.4125C16.1482 12.0716 16.326 11.6389 16.1293 11.262C15.949 10.9824 15.5498 11.0096 15.2888 11.1487C14.7314 11.4296 14.4262 12.021 14.2017 12.5764C14.1544 12.685 14.12 12.8015 14.0856 12.9182C14.0075 13.1826 13.9293 13.4477 13.7004 13.6219C13.2414 14.0248 12.6884 14.4284 12.0503 14.4056C11.6858 14.4075 11.4431 14.0634 11.3661 13.7402C12.3744 13.3474 13.2155 12.6149 13.8978 11.787C14.5296 10.9729 15.0315 10.0114 15.1166 8.96903C15.1639 8.44403 14.9766 7.84945 14.4987 7.57493C13.9009 7.24854 13.1525 7.34089 12.5661 7.65083ZM12.2082 2.26029C14.8584 1.51706 17.7268 1.54932 20.3492 2.39818C20.4488 2.42943 20.5293 2.49861 20.6083 2.5666L20.6399 2.59363C20.3926 2.57522 20.1573 2.50342 19.9216 2.43154C19.7445 2.37749 19.5672 2.3234 19.3845 2.29191C18.3132 2.07748 17.2022 1.97122 16.1164 2.13315C15.436 2.25586 14.7216 2.52026 14.2897 3.0908C13.9649 3.51396 13.9303 4.17939 14.3073 4.58168C14.7254 5.02508 15.4675 5.00104 15.9316 4.6424C16.0235 4.57474 16.115 4.50489 16.2067 4.43478L16.2068 4.4347C16.6616 4.08731 17.1247 3.73357 17.6934 3.60884C19.0825 3.26348 20.5384 3.54116 21.884 3.94219C23.5001 4.38433 25.0279 5.18384 26.2669 6.31797C28.3326 8.14852 29.5741 10.7767 30.0458 13.4713C30.4563 15.7705 30.3333 18.1729 29.6214 20.4013C29.5962 20.5056 29.53 20.5664 29.4215 20.5828C29.8345 19.0654 30.141 17.4556 29.8326 15.8894C29.6706 15.1336 29.2992 14.2803 28.506 14.0222C27.8988 13.8065 27.1591 14.2259 27.1106 14.8875C27.0202 15.4431 27.3548 15.8767 27.6768 16.294L27.6768 16.294L27.6768 16.294L27.6768 16.2941C27.7658 16.4093 27.8538 16.5233 27.9316 16.6384C28.704 17.7497 28.6081 19.1919 28.419 20.4671C28.0646 22.1939 27.4902 23.9125 26.4479 25.3521C24.8381 27.6697 22.2737 29.1992 19.5642 29.8526C17.2091 30.4174 14.714 30.4136 12.3634 29.8323C12.2961 29.8122 12.2269 29.7944 12.1573 29.7766L12.1573 29.7766L12.1572 29.7766C11.906 29.7122 11.6498 29.6466 11.4617 29.4604C11.7347 29.4596 11.9955 29.5318 12.2567 29.6041L12.2567 29.6041C12.4245 29.6505 12.5924 29.6969 12.7638 29.7242C13.9624 29.943 15.2141 30.0784 16.4115 29.7773C16.9537 29.6274 17.5036 29.368 17.8447 28.9019C18.1606 28.4673 18.1537 27.8013 17.7652 27.4123C17.4292 27.0561 16.8692 26.9828 16.4386 27.2067C16.1949 27.3397 15.9785 27.5133 15.7621 27.687L15.7621 27.6871C15.5256 27.8769 15.289 28.0668 15.0167 28.2036C13.9649 28.7153 12.7448 28.64 11.6231 28.4502C9.76235 28.084 7.92431 27.4072 6.42487 26.2168C4.43297 24.6816 3.05396 22.4418 2.37802 20.0306C1.66298 17.5062 1.65793 14.7933 2.31055 12.2549C2.34645 12.1712 2.36653 12.0722 2.38684 11.9721C2.43038 11.7575 2.47497 11.5376 2.67879 11.4522C2.29731 12.9026 1.99528 14.4226 2.22732 15.9255C2.34523 16.5928 2.57853 17.2987 3.129 17.7326C3.51048 18.0489 4.10761 18.1647 4.52944 17.861C4.97965 17.5973 5.12783 16.9704 4.91912 16.5074C4.80025 16.2255 4.61531 15.985 4.43012 15.7441C4.2725 15.5391 4.11468 15.3338 3.99726 15.1026C3.4449 14.0905 3.50607 12.8817 3.65235 11.7736C3.96069 9.99804 4.5616 8.24403 5.60516 6.76264C7.15504 4.5102 9.59462 2.96746 12.2082 2.26029ZM13.8758 8.79828C13.7648 8.51111 13.3783 8.43583 13.1443 8.61358C12.5617 9.01081 12.2073 9.6465 11.9003 10.2639C11.5711 10.9615 11.305 11.7111 11.2754 12.4878C11.498 12.3898 11.7079 12.2608 11.8883 12.0957C12.6166 11.4593 13.254 10.7009 13.6809 9.82677C13.8316 9.51114 13.9615 9.15249 13.8758 8.79828ZM20.6779 8.91719C20.8854 8.67746 21.2423 8.43773 21.5582 8.60093C21.905 8.80713 21.7234 9.26825 21.5866 9.55036C21.1099 10.4334 20.4024 11.1779 19.635 11.8136C19.6237 10.7661 19.9976 9.71228 20.6779 8.91719ZM13.3249 17.1684C12.2574 17.6643 11.2593 18.3158 10.3601 19.0742C9.6911 19.677 9.03849 20.3791 8.79509 21.2697C8.67907 21.7473 8.65196 22.3507 9.05236 22.7062C9.47419 23.0933 10.1098 22.9782 10.5985 22.7941C11.5386 22.4311 12.1061 21.5164 12.4895 20.629C12.9359 19.5271 13.2121 18.3525 13.3249 17.1684Z" fill="white"/>
</svg>
