<svg width="12" height="12" viewBox="0 0 12 12" fill="none" xmlns="http://www.w3.org/2000/svg">
<path fill-rule="evenodd" clip-rule="evenodd" d="M5.99976 4.8748L9.87457 0.999983C10.1853 0.689209 10.6892 0.689209 11 0.999983C11.3108 1.31076 11.3108 1.81462 11 2.1254L7.12517 6.00021L10.9995 9.87457C11.3103 10.1853 11.3103 10.6892 10.9995 11C10.6888 11.3108 10.1849 11.3108 9.87411 11L5.99976 7.12562L2.1254 11C1.81462 11.3108 1.31076 11.3108 0.999983 11C0.689208 10.6892 0.689208 10.1853 0.999983 9.87457L4.87434 6.00021L0.999528 2.1254C0.688754 1.81462 0.688754 1.31076 0.999529 0.999983C1.3103 0.689209 1.81417 0.689209 2.12494 0.999983L5.99976 4.8748Z" fill="#C5D2DE"/>
</svg>
