<svg width="16" height="15" viewBox="0 0 16 15" fill="none" xmlns="http://www.w3.org/2000/svg">
<path fill-rule="evenodd" clip-rule="evenodd" d="M0 1.58331C0 0.892957 0.559644 0.333313 1.25 0.333313H1.35005C2.04041 0.333313 2.60005 0.892957 2.60005 1.58331V12.95C2.60005 13.6403 2.04041 14.2 1.35005 14.2H1.25C0.559644 14.2 0 13.6403 0 12.95V1.58331ZM9.49988 3.34035C9.49988 2.22526 8.15043 1.66822 7.36386 2.45861L3.47753 6.36381C2.99222 6.85147 2.99222 7.63963 3.47753 8.12729L7.36386 12.0325C8.15043 12.8229 9.49988 12.2658 9.49988 11.1508V3.34035ZM13.864 2.45861C14.6506 1.66822 16 2.22526 16 3.34035V11.1508C16 12.2658 14.6506 12.8229 13.864 12.0325L9.97765 8.12729C9.49235 7.63963 9.49235 6.85147 9.97765 6.36381L13.864 2.45861Z" fill="#FFFFFF"/>
</svg>
