<svg width="12" height="12" viewBox="0 0 12 12" fill="none" xmlns="http://www.w3.org/2000/svg">
<path d="M3.21767 9.70294C2.91982 10.0073 2.92876 10.492 3.23763 10.7855C3.54651 11.079 4.03837 11.0702 4.33622 10.7658L9 6L4.33622 1.23417C4.03837 0.929795 3.54651 0.920989 3.23763 1.2145C2.92876 1.50801 2.91982 1.99269 3.21767 2.29706L6.84132 6L3.21767 9.70294Z" fill="#38434E"/>
<mask id="mask0_1258_11942" style="mask-type:alpha" maskUnits="userSpaceOnUse" x="3" y="1" width="6" height="10">
<path d="M3.21767 9.70294C2.91982 10.0073 2.92876 10.492 3.23763 10.7855C3.54651 11.079 4.03837 11.0702 4.33622 10.7658L9 6L4.33622 1.23417C4.03837 0.929795 3.54651 0.920989 3.23763 1.2145C2.92876 1.50801 2.91982 1.99269 3.21767 2.29706L6.84132 6L3.21767 9.70294Z" fill="white"/>
</mask>
<g mask="url(#mask0_1258_11942)">
<rect y="12" width="12" height="12" transform="rotate(-90 0 12)" fill="#5E6D7B"/>
</g>
</svg>
