<svg width="15" height="14" viewBox="0 0 15 14" fill="none" xmlns="http://www.w3.org/2000/svg">
<path fill-rule="evenodd" fill="white" clip-rule="evenodd" d="M1.78592 7.00003C1.78592 10.1572 4.34307 12.7143 7.50021 12.7143C10.6574 12.7143 13.2145 10.1572 13.2145 7.00003C13.2145 3.84288 10.6574 1.28574 7.50021 1.28574C4.34307 1.28574 1.78592 3.84288 1.78592 7.00003ZM0.643066 7.00003C0.643066 3.21488 3.70821 0.142883 7.49335 0.142883C11.2854 0.142883 14.3574 3.21488 14.3574 7.00003C14.3574 10.7852 11.2854 13.8572 7.49335 13.8572C3.70821 13.8572 0.643066 10.7852 0.643066 7.00003ZM6.35735 3.57146H7.50021V6.85014L10.9288 8.51759L10.3574 9.28574L6.35735 7.31853V3.57146Z" fill="#C5D2DE"/>
</svg>
