<svg width="14" height="14" viewBox="0 0 12 12" fill="none" xmlns="http://www.w3.org/2000/svg">
<path fill-rule="evenodd" clip-rule="evenodd" d="M9.53176 7.71557V11.1431H7.25245C7.12101 11.1442 6.98962 11.1463 6.85828 11.1493V4.12522C6.89467 4.08848 6.92612 4.04869 6.95262 4.00667L9.04334 3.60252C9.79385 3.42303 10.4921 3.07095 11.0827 2.57426C11.1708 2.48999 11.195 2.35876 11.1427 2.24864L11.0913 2.16295L6.67934 3.00332C6.62891 2.97501 6.57553 2.95349 6.52057 2.93886L5.06739 1.30606C4.53218 0.722972 3.86524 0.276386 3.12226 0.00359787C3.00164 -0.0155018 2.8819 0.0426533 2.82235 0.149268V0.234957L5.6702 3.48965C5.64677 3.63204 5.66766 3.78093 5.73444 3.91386L5.05025 5.8904C4.82701 6.62901 4.78005 7.40968 4.91315 8.16972C4.93329 8.28816 5.02607 8.38094 5.14451 8.40108H5.23876L6.00139 6.18728V11.1837C4.26558 11.282 2.54304 11.5553 0.860077 12C6.40413 12 11.9139 11.5373 11.9996 11.5287V11.1431H10.183V7.71557L10.7657 8.04976C11.0717 8.21588 11.4117 8.30969 11.7597 8.32396H11.8111C11.9007 8.31286 11.9714 8.24223 11.9825 8.15258V8.06689L10.2858 7.07291C10.2557 6.99057 10.2056 6.91698 10.1402 6.85869V5.92468C10.1279 5.56065 10.028 5.20496 9.84881 4.88785C9.79312 4.81961 9.70133 4.79241 9.61745 4.8193H9.53176V6.85869C9.4725 6.91745 9.43093 6.99167 9.4118 7.07291L8.57205 7.54419C8.26365 7.73851 8.00533 8.0027 7.81799 8.31539C7.78361 8.39722 7.80816 8.49194 7.87797 8.54675L7.97223 8.57246L9.53176 7.71557ZM2.04258 7.95875V10.4657C1.34023 10.6085 0.655373 10.8354 0.00319105 11.1431L5.58152 10.4833V10.2862H3.86775C3.47426 10.2845 3.08213 10.3086 2.69381 10.3582V9.16275C2.81386 9.34867 2.96094 9.51659 3.13082 9.6607C3.16396 9.6732 3.20051 9.6732 3.23365 9.6607C3.29581 9.68875 3.36638 9.69182 3.43073 9.66927V9.60929L2.78807 7.78412C2.80501 7.72564 2.81366 7.66506 2.81378 7.60418L3.43073 6.85868C3.65493 6.57319 3.80769 6.23829 3.87632 5.88183C3.88013 5.7933 3.82904 5.71155 3.74778 5.67618H3.66209L2.34249 7.20144C2.25884 7.20766 2.17865 7.23736 2.11113 7.28713L1.18569 7.12432C0.825531 7.07426 0.458647 7.10948 0.114586 7.22715C0.0329392 7.26479 -0.0128855 7.35291 0.00319105 7.44137V7.53562L1.99117 7.88695C2.00421 7.91365 2.02161 7.93791 2.04258 7.95875Z" fill="#F2F2F2"/>
</svg>
