<svg xmlns="http://www.w3.org/2000/svg" width="21.614" height="21.615" viewBox="0 0 21.614 21.615"><defs></defs><path class="a" d="M0,1.544,10.048.355V0H6.961A16.15,16.15,0,0,0,0,1.544" transform="translate(0.006 18.528)"/><path class="a" d="M1.1,1.1a.572.572,0,0,1-.8,0A.589.589,0,0,1,.3.3a.572.572,0,0,1,.8,0,.589.589,0,0,1,0,.8" transform="translate(3.538 13.028)"/><path class="a" d="M5.068,3.473h0L6.179,2.13a4.1,4.1,0,0,0,.8-1.76A.384.384,0,0,0,6.75,0H6.6L4.219,2.747A.8.8,0,0,0,3.8,2.9L2.135,2.607a4.221,4.221,0,0,0-1.929.187.357.357,0,0,0-.2.386v.17l3.581.633a.476.476,0,0,0,.139.168.77.77,0,0,0,.293.156l.494,1.326A4.068,4.068,0,0,0,5.639,7.176a.256.256,0,0,0,.185,0,.465.465,0,0,0,.355.017V7.085L5.022,3.8a1.151,1.151,0,0,0,.046-.324" transform="translate(0 10.225)"/><path class="a" d="M.12,0V5.34L1.293,5.31V0Z" transform="translate(3.559 14.052)"/><path class="a" d="M11.514,0A46.547,46.547,0,0,0,0,1.543c9.986,0,19.911-.833,20.065-.849V0Z" transform="translate(1.549 20.072)"/><path class="a" d="M0,0H1.543V14.076L0,14.292Z" transform="translate(10.81 6.428)"/><g transform="translate(5.084 0)"><path class="a" d="M14.987,4.051,14.894,3.9,6.791,5.44,4.044,2.353A8.917,8.917,0,0,0,.54.007.521.521,0,0,0,0,.269V.424L5.4,6.6,4.013,10.61a8.886,8.886,0,0,0-.247,4.106.51.51,0,0,0,.417.417h.17l2.7-7.841,4.152-.8a8.937,8.937,0,0,0,3.673-1.852.509.509,0,0,0,.108-.587" transform="translate(0)"/></g><path class="a" d="M2.157.419a1.252,1.252,0,0,1,0,1.76A1.266,1.266,0,0,1,.368,2.128C.347,2.1.325,2.08.3,2.055A1.25,1.25,0,0,1,.428.3,1.235,1.235,0,0,1,2.157.419" transform="translate(10.196 5.252)"/><path class="a" d="M1.271.717A.571.571,0,1,1,.7.13a.557.557,0,0,1,.571.54V.7" transform="translate(17.009 12.224)"/><path class="a" d="M4.473,4.078a.962.962,0,0,0-.262-.386V2.01A4.089,4.089,0,0,0,3.686.142.383.383,0,0,0,3.269.019H3.115V3.692a.8.8,0,0,0-.216.386l-1.513.849A4.174,4.174,0,0,0,.028,6.316a.354.354,0,0,0,.108.417l.17.046L3.115,5.236v6.359H4.288V5.236l1.05.6a4.11,4.11,0,0,0,1.79.494H7.22a.356.356,0,0,0,.309-.309V5.869Z" transform="translate(14.054 8.662)"/></svg>